M48
; DRILL file {KiCad 8.0.1-8.0.1-1~ubuntu22.04.1} date 2024-04-25T02:13:20+0100
; FORMAT={-:-/ absolute / metric / decimal}
; #@! TF.CreationDate,2024-04-25T02:13:20+01:00
; #@! TF.GenerationSoftware,Kicad,Pcbnew,8.0.1-8.0.1-1~ubuntu22.04.1
; #@! TF.FileFunction,Plated,1,2,PTH
FMAT,2
METRIC
; #@! TA.AperFunction,Plated,PTH,ComponentDrill
T1C1.000
%
G90
G05
T1
X127.0Y-104.14
X127.0Y-106.68
X127.0Y-109.22
X127.0Y-111.76
X127.0Y-114.3
X127.0Y-116.84
X127.0Y-119.38
X127.0Y-121.92
X127.0Y-124.46
X127.0Y-127.0
X127.0Y-129.54
X127.0Y-132.08
X147.32Y-104.14
X147.32Y-106.68
X147.32Y-109.22
X147.32Y-111.76
X147.32Y-114.3
X147.32Y-116.84
X147.32Y-119.38
X147.32Y-121.92
X147.32Y-124.46
X147.32Y-127.0
X147.32Y-129.54
X147.32Y-132.08
M30
