%TF.GenerationSoftware,KiCad,Pcbnew,8.0.1-8.0.1-1~ubuntu22.04.1*%
%TF.CreationDate,2024-04-25T02:13:17+01:00*%
%TF.ProjectId,VQFN_breakout,5651464e-5f62-4726-9561-6b6f75742e6b,rev?*%
%TF.SameCoordinates,Original*%
%TF.FileFunction,Drillmap*%
%TF.FilePolarity,Positive*%
%FSLAX45Y45*%
G04 Gerber Fmt 4.5, Leading zero omitted, Abs format (unit mm)*
G04 Created by KiCad (PCBNEW 8.0.1-8.0.1-1~ubuntu22.04.1) date 2024-04-25 02:13:17*
%MOMM*%
%LPD*%
G01*
G04 APERTURE LIST*
%ADD10C,0.050000*%
%ADD11C,0.200000*%
%ADD12C,0.100000*%
G04 APERTURE END LIST*
D10*
X12446000Y-10160000D02*
X14986000Y-10160000D01*
X14986000Y-13462000D01*
X12446000Y-13462000D01*
X12446000Y-10160000D01*
D11*
D12*
X12650000Y-10364000D02*
X12750000Y-10464000D01*
X12750000Y-10364000D02*
X12650000Y-10464000D01*
X12650000Y-10618000D02*
X12750000Y-10718000D01*
X12750000Y-10618000D02*
X12650000Y-10718000D01*
X12650000Y-10872000D02*
X12750000Y-10972000D01*
X12750000Y-10872000D02*
X12650000Y-10972000D01*
X12650000Y-11126000D02*
X12750000Y-11226000D01*
X12750000Y-11126000D02*
X12650000Y-11226000D01*
X12650000Y-11380000D02*
X12750000Y-11480000D01*
X12750000Y-11380000D02*
X12650000Y-11480000D01*
X12650000Y-11634000D02*
X12750000Y-11734000D01*
X12750000Y-11634000D02*
X12650000Y-11734000D01*
X12650000Y-11888000D02*
X12750000Y-11988000D01*
X12750000Y-11888000D02*
X12650000Y-11988000D01*
X12650000Y-12142000D02*
X12750000Y-12242000D01*
X12750000Y-12142000D02*
X12650000Y-12242000D01*
X12650000Y-12396000D02*
X12750000Y-12496000D01*
X12750000Y-12396000D02*
X12650000Y-12496000D01*
X12650000Y-12650000D02*
X12750000Y-12750000D01*
X12750000Y-12650000D02*
X12650000Y-12750000D01*
X12650000Y-12904000D02*
X12750000Y-13004000D01*
X12750000Y-12904000D02*
X12650000Y-13004000D01*
X12650000Y-13158000D02*
X12750000Y-13258000D01*
X12750000Y-13158000D02*
X12650000Y-13258000D01*
X14682000Y-10364000D02*
X14782000Y-10464000D01*
X14782000Y-10364000D02*
X14682000Y-10464000D01*
X14682000Y-10618000D02*
X14782000Y-10718000D01*
X14782000Y-10618000D02*
X14682000Y-10718000D01*
X14682000Y-10872000D02*
X14782000Y-10972000D01*
X14782000Y-10872000D02*
X14682000Y-10972000D01*
X14682000Y-11126000D02*
X14782000Y-11226000D01*
X14782000Y-11126000D02*
X14682000Y-11226000D01*
X14682000Y-11380000D02*
X14782000Y-11480000D01*
X14782000Y-11380000D02*
X14682000Y-11480000D01*
X14682000Y-11634000D02*
X14782000Y-11734000D01*
X14782000Y-11634000D02*
X14682000Y-11734000D01*
X14682000Y-11888000D02*
X14782000Y-11988000D01*
X14782000Y-11888000D02*
X14682000Y-11988000D01*
X14682000Y-12142000D02*
X14782000Y-12242000D01*
X14782000Y-12142000D02*
X14682000Y-12242000D01*
X14682000Y-12396000D02*
X14782000Y-12496000D01*
X14782000Y-12396000D02*
X14682000Y-12496000D01*
X14682000Y-12650000D02*
X14782000Y-12750000D01*
X14782000Y-12650000D02*
X14682000Y-12750000D01*
X14682000Y-12904000D02*
X14782000Y-13004000D01*
X14782000Y-12904000D02*
X14682000Y-13004000D01*
X14682000Y-13158000D02*
X14782000Y-13258000D01*
X14782000Y-13158000D02*
X14682000Y-13258000D01*
D11*
X12704277Y-13775984D02*
X12704277Y-13575984D01*
X12704277Y-13575984D02*
X12751896Y-13575984D01*
X12751896Y-13575984D02*
X12780467Y-13585508D01*
X12780467Y-13585508D02*
X12799515Y-13604555D01*
X12799515Y-13604555D02*
X12809039Y-13623603D01*
X12809039Y-13623603D02*
X12818562Y-13661698D01*
X12818562Y-13661698D02*
X12818562Y-13690269D01*
X12818562Y-13690269D02*
X12809039Y-13728365D01*
X12809039Y-13728365D02*
X12799515Y-13747412D01*
X12799515Y-13747412D02*
X12780467Y-13766460D01*
X12780467Y-13766460D02*
X12751896Y-13775984D01*
X12751896Y-13775984D02*
X12704277Y-13775984D01*
X12904277Y-13775984D02*
X12904277Y-13642650D01*
X12904277Y-13680746D02*
X12913801Y-13661698D01*
X12913801Y-13661698D02*
X12923324Y-13652174D01*
X12923324Y-13652174D02*
X12942372Y-13642650D01*
X12942372Y-13642650D02*
X12961420Y-13642650D01*
X13028086Y-13775984D02*
X13028086Y-13642650D01*
X13028086Y-13575984D02*
X13018562Y-13585508D01*
X13018562Y-13585508D02*
X13028086Y-13595031D01*
X13028086Y-13595031D02*
X13037610Y-13585508D01*
X13037610Y-13585508D02*
X13028086Y-13575984D01*
X13028086Y-13575984D02*
X13028086Y-13595031D01*
X13151896Y-13775984D02*
X13132848Y-13766460D01*
X13132848Y-13766460D02*
X13123324Y-13747412D01*
X13123324Y-13747412D02*
X13123324Y-13575984D01*
X13256658Y-13775984D02*
X13237610Y-13766460D01*
X13237610Y-13766460D02*
X13228086Y-13747412D01*
X13228086Y-13747412D02*
X13228086Y-13575984D01*
X13485229Y-13775984D02*
X13485229Y-13575984D01*
X13485229Y-13575984D02*
X13551896Y-13718841D01*
X13551896Y-13718841D02*
X13618562Y-13575984D01*
X13618562Y-13575984D02*
X13618562Y-13775984D01*
X13799515Y-13775984D02*
X13799515Y-13671222D01*
X13799515Y-13671222D02*
X13789991Y-13652174D01*
X13789991Y-13652174D02*
X13770943Y-13642650D01*
X13770943Y-13642650D02*
X13732848Y-13642650D01*
X13732848Y-13642650D02*
X13713801Y-13652174D01*
X13799515Y-13766460D02*
X13780467Y-13775984D01*
X13780467Y-13775984D02*
X13732848Y-13775984D01*
X13732848Y-13775984D02*
X13713801Y-13766460D01*
X13713801Y-13766460D02*
X13704277Y-13747412D01*
X13704277Y-13747412D02*
X13704277Y-13728365D01*
X13704277Y-13728365D02*
X13713801Y-13709317D01*
X13713801Y-13709317D02*
X13732848Y-13699793D01*
X13732848Y-13699793D02*
X13780467Y-13699793D01*
X13780467Y-13699793D02*
X13799515Y-13690269D01*
X13894753Y-13642650D02*
X13894753Y-13842650D01*
X13894753Y-13652174D02*
X13913801Y-13642650D01*
X13913801Y-13642650D02*
X13951896Y-13642650D01*
X13951896Y-13642650D02*
X13970943Y-13652174D01*
X13970943Y-13652174D02*
X13980467Y-13661698D01*
X13980467Y-13661698D02*
X13989991Y-13680746D01*
X13989991Y-13680746D02*
X13989991Y-13737888D01*
X13989991Y-13737888D02*
X13980467Y-13756936D01*
X13980467Y-13756936D02*
X13970943Y-13766460D01*
X13970943Y-13766460D02*
X13951896Y-13775984D01*
X13951896Y-13775984D02*
X13913801Y-13775984D01*
X13913801Y-13775984D02*
X13894753Y-13766460D01*
X14075705Y-13756936D02*
X14085229Y-13766460D01*
X14085229Y-13766460D02*
X14075705Y-13775984D01*
X14075705Y-13775984D02*
X14066182Y-13766460D01*
X14066182Y-13766460D02*
X14075705Y-13756936D01*
X14075705Y-13756936D02*
X14075705Y-13775984D01*
X14075705Y-13652174D02*
X14085229Y-13661698D01*
X14085229Y-13661698D02*
X14075705Y-13671222D01*
X14075705Y-13671222D02*
X14066182Y-13661698D01*
X14066182Y-13661698D02*
X14075705Y-13652174D01*
X14075705Y-13652174D02*
X14075705Y-13671222D01*
D12*
X12343500Y-14054500D02*
X12443500Y-14154500D01*
X12443500Y-14054500D02*
X12343500Y-14154500D01*
D11*
X12809039Y-14195984D02*
X12694753Y-14195984D01*
X12751896Y-14195984D02*
X12751896Y-13995984D01*
X12751896Y-13995984D02*
X12732848Y-14024555D01*
X12732848Y-14024555D02*
X12713801Y-14043603D01*
X12713801Y-14043603D02*
X12694753Y-14053127D01*
X12894753Y-14176936D02*
X12904277Y-14186460D01*
X12904277Y-14186460D02*
X12894753Y-14195984D01*
X12894753Y-14195984D02*
X12885229Y-14186460D01*
X12885229Y-14186460D02*
X12894753Y-14176936D01*
X12894753Y-14176936D02*
X12894753Y-14195984D01*
X13028086Y-13995984D02*
X13047134Y-13995984D01*
X13047134Y-13995984D02*
X13066182Y-14005508D01*
X13066182Y-14005508D02*
X13075705Y-14015031D01*
X13075705Y-14015031D02*
X13085229Y-14034079D01*
X13085229Y-14034079D02*
X13094753Y-14072174D01*
X13094753Y-14072174D02*
X13094753Y-14119793D01*
X13094753Y-14119793D02*
X13085229Y-14157888D01*
X13085229Y-14157888D02*
X13075705Y-14176936D01*
X13075705Y-14176936D02*
X13066182Y-14186460D01*
X13066182Y-14186460D02*
X13047134Y-14195984D01*
X13047134Y-14195984D02*
X13028086Y-14195984D01*
X13028086Y-14195984D02*
X13009039Y-14186460D01*
X13009039Y-14186460D02*
X12999515Y-14176936D01*
X12999515Y-14176936D02*
X12989991Y-14157888D01*
X12989991Y-14157888D02*
X12980467Y-14119793D01*
X12980467Y-14119793D02*
X12980467Y-14072174D01*
X12980467Y-14072174D02*
X12989991Y-14034079D01*
X12989991Y-14034079D02*
X12999515Y-14015031D01*
X12999515Y-14015031D02*
X13009039Y-14005508D01*
X13009039Y-14005508D02*
X13028086Y-13995984D01*
X13218562Y-13995984D02*
X13237610Y-13995984D01*
X13237610Y-13995984D02*
X13256658Y-14005508D01*
X13256658Y-14005508D02*
X13266182Y-14015031D01*
X13266182Y-14015031D02*
X13275705Y-14034079D01*
X13275705Y-14034079D02*
X13285229Y-14072174D01*
X13285229Y-14072174D02*
X13285229Y-14119793D01*
X13285229Y-14119793D02*
X13275705Y-14157888D01*
X13275705Y-14157888D02*
X13266182Y-14176936D01*
X13266182Y-14176936D02*
X13256658Y-14186460D01*
X13256658Y-14186460D02*
X13237610Y-14195984D01*
X13237610Y-14195984D02*
X13218562Y-14195984D01*
X13218562Y-14195984D02*
X13199515Y-14186460D01*
X13199515Y-14186460D02*
X13189991Y-14176936D01*
X13189991Y-14176936D02*
X13180467Y-14157888D01*
X13180467Y-14157888D02*
X13170943Y-14119793D01*
X13170943Y-14119793D02*
X13170943Y-14072174D01*
X13170943Y-14072174D02*
X13180467Y-14034079D01*
X13180467Y-14034079D02*
X13189991Y-14015031D01*
X13189991Y-14015031D02*
X13199515Y-14005508D01*
X13199515Y-14005508D02*
X13218562Y-13995984D01*
X13409039Y-13995984D02*
X13428086Y-13995984D01*
X13428086Y-13995984D02*
X13447134Y-14005508D01*
X13447134Y-14005508D02*
X13456658Y-14015031D01*
X13456658Y-14015031D02*
X13466182Y-14034079D01*
X13466182Y-14034079D02*
X13475705Y-14072174D01*
X13475705Y-14072174D02*
X13475705Y-14119793D01*
X13475705Y-14119793D02*
X13466182Y-14157888D01*
X13466182Y-14157888D02*
X13456658Y-14176936D01*
X13456658Y-14176936D02*
X13447134Y-14186460D01*
X13447134Y-14186460D02*
X13428086Y-14195984D01*
X13428086Y-14195984D02*
X13409039Y-14195984D01*
X13409039Y-14195984D02*
X13389991Y-14186460D01*
X13389991Y-14186460D02*
X13380467Y-14176936D01*
X13380467Y-14176936D02*
X13370943Y-14157888D01*
X13370943Y-14157888D02*
X13361420Y-14119793D01*
X13361420Y-14119793D02*
X13361420Y-14072174D01*
X13361420Y-14072174D02*
X13370943Y-14034079D01*
X13370943Y-14034079D02*
X13380467Y-14015031D01*
X13380467Y-14015031D02*
X13389991Y-14005508D01*
X13389991Y-14005508D02*
X13409039Y-13995984D01*
X13561420Y-14195984D02*
X13561420Y-14062650D01*
X13561420Y-14081698D02*
X13570943Y-14072174D01*
X13570943Y-14072174D02*
X13589991Y-14062650D01*
X13589991Y-14062650D02*
X13618563Y-14062650D01*
X13618563Y-14062650D02*
X13637610Y-14072174D01*
X13637610Y-14072174D02*
X13647134Y-14091222D01*
X13647134Y-14091222D02*
X13647134Y-14195984D01*
X13647134Y-14091222D02*
X13656658Y-14072174D01*
X13656658Y-14072174D02*
X13675705Y-14062650D01*
X13675705Y-14062650D02*
X13704277Y-14062650D01*
X13704277Y-14062650D02*
X13723324Y-14072174D01*
X13723324Y-14072174D02*
X13732848Y-14091222D01*
X13732848Y-14091222D02*
X13732848Y-14195984D01*
X13828086Y-14195984D02*
X13828086Y-14062650D01*
X13828086Y-14081698D02*
X13837610Y-14072174D01*
X13837610Y-14072174D02*
X13856658Y-14062650D01*
X13856658Y-14062650D02*
X13885229Y-14062650D01*
X13885229Y-14062650D02*
X13904277Y-14072174D01*
X13904277Y-14072174D02*
X13913801Y-14091222D01*
X13913801Y-14091222D02*
X13913801Y-14195984D01*
X13913801Y-14091222D02*
X13923324Y-14072174D01*
X13923324Y-14072174D02*
X13942372Y-14062650D01*
X13942372Y-14062650D02*
X13970943Y-14062650D01*
X13970943Y-14062650D02*
X13989991Y-14072174D01*
X13989991Y-14072174D02*
X13999515Y-14091222D01*
X13999515Y-14091222D02*
X13999515Y-14195984D01*
X14389991Y-13986460D02*
X14218563Y-14243603D01*
X14647134Y-13995984D02*
X14666182Y-13995984D01*
X14666182Y-13995984D02*
X14685229Y-14005508D01*
X14685229Y-14005508D02*
X14694753Y-14015031D01*
X14694753Y-14015031D02*
X14704277Y-14034079D01*
X14704277Y-14034079D02*
X14713801Y-14072174D01*
X14713801Y-14072174D02*
X14713801Y-14119793D01*
X14713801Y-14119793D02*
X14704277Y-14157888D01*
X14704277Y-14157888D02*
X14694753Y-14176936D01*
X14694753Y-14176936D02*
X14685229Y-14186460D01*
X14685229Y-14186460D02*
X14666182Y-14195984D01*
X14666182Y-14195984D02*
X14647134Y-14195984D01*
X14647134Y-14195984D02*
X14628086Y-14186460D01*
X14628086Y-14186460D02*
X14618563Y-14176936D01*
X14618563Y-14176936D02*
X14609039Y-14157888D01*
X14609039Y-14157888D02*
X14599515Y-14119793D01*
X14599515Y-14119793D02*
X14599515Y-14072174D01*
X14599515Y-14072174D02*
X14609039Y-14034079D01*
X14609039Y-14034079D02*
X14618563Y-14015031D01*
X14618563Y-14015031D02*
X14628086Y-14005508D01*
X14628086Y-14005508D02*
X14647134Y-13995984D01*
X14799515Y-14176936D02*
X14809039Y-14186460D01*
X14809039Y-14186460D02*
X14799515Y-14195984D01*
X14799515Y-14195984D02*
X14789991Y-14186460D01*
X14789991Y-14186460D02*
X14799515Y-14176936D01*
X14799515Y-14176936D02*
X14799515Y-14195984D01*
X14932848Y-13995984D02*
X14951896Y-13995984D01*
X14951896Y-13995984D02*
X14970944Y-14005508D01*
X14970944Y-14005508D02*
X14980467Y-14015031D01*
X14980467Y-14015031D02*
X14989991Y-14034079D01*
X14989991Y-14034079D02*
X14999515Y-14072174D01*
X14999515Y-14072174D02*
X14999515Y-14119793D01*
X14999515Y-14119793D02*
X14989991Y-14157888D01*
X14989991Y-14157888D02*
X14980467Y-14176936D01*
X14980467Y-14176936D02*
X14970944Y-14186460D01*
X14970944Y-14186460D02*
X14951896Y-14195984D01*
X14951896Y-14195984D02*
X14932848Y-14195984D01*
X14932848Y-14195984D02*
X14913801Y-14186460D01*
X14913801Y-14186460D02*
X14904277Y-14176936D01*
X14904277Y-14176936D02*
X14894753Y-14157888D01*
X14894753Y-14157888D02*
X14885229Y-14119793D01*
X14885229Y-14119793D02*
X14885229Y-14072174D01*
X14885229Y-14072174D02*
X14894753Y-14034079D01*
X14894753Y-14034079D02*
X14904277Y-14015031D01*
X14904277Y-14015031D02*
X14913801Y-14005508D01*
X14913801Y-14005508D02*
X14932848Y-13995984D01*
X15066182Y-13995984D02*
X15189991Y-13995984D01*
X15189991Y-13995984D02*
X15123325Y-14072174D01*
X15123325Y-14072174D02*
X15151896Y-14072174D01*
X15151896Y-14072174D02*
X15170944Y-14081698D01*
X15170944Y-14081698D02*
X15180467Y-14091222D01*
X15180467Y-14091222D02*
X15189991Y-14110269D01*
X15189991Y-14110269D02*
X15189991Y-14157888D01*
X15189991Y-14157888D02*
X15180467Y-14176936D01*
X15180467Y-14176936D02*
X15170944Y-14186460D01*
X15170944Y-14186460D02*
X15151896Y-14195984D01*
X15151896Y-14195984D02*
X15094753Y-14195984D01*
X15094753Y-14195984D02*
X15075706Y-14186460D01*
X15075706Y-14186460D02*
X15066182Y-14176936D01*
X15285229Y-14195984D02*
X15323325Y-14195984D01*
X15323325Y-14195984D02*
X15342372Y-14186460D01*
X15342372Y-14186460D02*
X15351896Y-14176936D01*
X15351896Y-14176936D02*
X15370944Y-14148365D01*
X15370944Y-14148365D02*
X15380467Y-14110269D01*
X15380467Y-14110269D02*
X15380467Y-14034079D01*
X15380467Y-14034079D02*
X15370944Y-14015031D01*
X15370944Y-14015031D02*
X15361420Y-14005508D01*
X15361420Y-14005508D02*
X15342372Y-13995984D01*
X15342372Y-13995984D02*
X15304277Y-13995984D01*
X15304277Y-13995984D02*
X15285229Y-14005508D01*
X15285229Y-14005508D02*
X15275706Y-14015031D01*
X15275706Y-14015031D02*
X15266182Y-14034079D01*
X15266182Y-14034079D02*
X15266182Y-14081698D01*
X15266182Y-14081698D02*
X15275706Y-14100746D01*
X15275706Y-14100746D02*
X15285229Y-14110269D01*
X15285229Y-14110269D02*
X15304277Y-14119793D01*
X15304277Y-14119793D02*
X15342372Y-14119793D01*
X15342372Y-14119793D02*
X15361420Y-14110269D01*
X15361420Y-14110269D02*
X15370944Y-14100746D01*
X15370944Y-14100746D02*
X15380467Y-14081698D01*
X15551896Y-14062650D02*
X15551896Y-14195984D01*
X15504277Y-13986460D02*
X15456658Y-14129317D01*
X15456658Y-14129317D02*
X15580467Y-14129317D01*
X15647134Y-13995984D02*
X15647134Y-14034079D01*
X15723325Y-13995984D02*
X15723325Y-14034079D01*
X16018563Y-14272174D02*
X16009039Y-14262650D01*
X16009039Y-14262650D02*
X15989991Y-14234079D01*
X15989991Y-14234079D02*
X15980468Y-14215031D01*
X15980468Y-14215031D02*
X15970944Y-14186460D01*
X15970944Y-14186460D02*
X15961420Y-14138841D01*
X15961420Y-14138841D02*
X15961420Y-14100746D01*
X15961420Y-14100746D02*
X15970944Y-14053127D01*
X15970944Y-14053127D02*
X15980468Y-14024555D01*
X15980468Y-14024555D02*
X15989991Y-14005508D01*
X15989991Y-14005508D02*
X16009039Y-13976936D01*
X16009039Y-13976936D02*
X16018563Y-13967412D01*
X16085229Y-14015031D02*
X16094753Y-14005508D01*
X16094753Y-14005508D02*
X16113801Y-13995984D01*
X16113801Y-13995984D02*
X16161420Y-13995984D01*
X16161420Y-13995984D02*
X16180468Y-14005508D01*
X16180468Y-14005508D02*
X16189991Y-14015031D01*
X16189991Y-14015031D02*
X16199515Y-14034079D01*
X16199515Y-14034079D02*
X16199515Y-14053127D01*
X16199515Y-14053127D02*
X16189991Y-14081698D01*
X16189991Y-14081698D02*
X16075706Y-14195984D01*
X16075706Y-14195984D02*
X16199515Y-14195984D01*
X16370944Y-14062650D02*
X16370944Y-14195984D01*
X16323325Y-13986460D02*
X16275706Y-14129317D01*
X16275706Y-14129317D02*
X16399515Y-14129317D01*
X16628087Y-14195984D02*
X16628087Y-13995984D01*
X16713801Y-14195984D02*
X16713801Y-14091222D01*
X16713801Y-14091222D02*
X16704277Y-14072174D01*
X16704277Y-14072174D02*
X16685230Y-14062650D01*
X16685230Y-14062650D02*
X16656658Y-14062650D01*
X16656658Y-14062650D02*
X16637610Y-14072174D01*
X16637610Y-14072174D02*
X16628087Y-14081698D01*
X16837611Y-14195984D02*
X16818563Y-14186460D01*
X16818563Y-14186460D02*
X16809039Y-14176936D01*
X16809039Y-14176936D02*
X16799515Y-14157888D01*
X16799515Y-14157888D02*
X16799515Y-14100746D01*
X16799515Y-14100746D02*
X16809039Y-14081698D01*
X16809039Y-14081698D02*
X16818563Y-14072174D01*
X16818563Y-14072174D02*
X16837611Y-14062650D01*
X16837611Y-14062650D02*
X16866182Y-14062650D01*
X16866182Y-14062650D02*
X16885230Y-14072174D01*
X16885230Y-14072174D02*
X16894753Y-14081698D01*
X16894753Y-14081698D02*
X16904277Y-14100746D01*
X16904277Y-14100746D02*
X16904277Y-14157888D01*
X16904277Y-14157888D02*
X16894753Y-14176936D01*
X16894753Y-14176936D02*
X16885230Y-14186460D01*
X16885230Y-14186460D02*
X16866182Y-14195984D01*
X16866182Y-14195984D02*
X16837611Y-14195984D01*
X17018563Y-14195984D02*
X16999515Y-14186460D01*
X16999515Y-14186460D02*
X16989992Y-14167412D01*
X16989992Y-14167412D02*
X16989992Y-13995984D01*
X17170944Y-14186460D02*
X17151896Y-14195984D01*
X17151896Y-14195984D02*
X17113801Y-14195984D01*
X17113801Y-14195984D02*
X17094753Y-14186460D01*
X17094753Y-14186460D02*
X17085230Y-14167412D01*
X17085230Y-14167412D02*
X17085230Y-14091222D01*
X17085230Y-14091222D02*
X17094753Y-14072174D01*
X17094753Y-14072174D02*
X17113801Y-14062650D01*
X17113801Y-14062650D02*
X17151896Y-14062650D01*
X17151896Y-14062650D02*
X17170944Y-14072174D01*
X17170944Y-14072174D02*
X17180468Y-14091222D01*
X17180468Y-14091222D02*
X17180468Y-14110269D01*
X17180468Y-14110269D02*
X17085230Y-14129317D01*
X17256658Y-14186460D02*
X17275706Y-14195984D01*
X17275706Y-14195984D02*
X17313801Y-14195984D01*
X17313801Y-14195984D02*
X17332849Y-14186460D01*
X17332849Y-14186460D02*
X17342373Y-14167412D01*
X17342373Y-14167412D02*
X17342373Y-14157888D01*
X17342373Y-14157888D02*
X17332849Y-14138841D01*
X17332849Y-14138841D02*
X17313801Y-14129317D01*
X17313801Y-14129317D02*
X17285230Y-14129317D01*
X17285230Y-14129317D02*
X17266182Y-14119793D01*
X17266182Y-14119793D02*
X17256658Y-14100746D01*
X17256658Y-14100746D02*
X17256658Y-14091222D01*
X17256658Y-14091222D02*
X17266182Y-14072174D01*
X17266182Y-14072174D02*
X17285230Y-14062650D01*
X17285230Y-14062650D02*
X17313801Y-14062650D01*
X17313801Y-14062650D02*
X17332849Y-14072174D01*
X17409039Y-14272174D02*
X17418563Y-14262650D01*
X17418563Y-14262650D02*
X17437611Y-14234079D01*
X17437611Y-14234079D02*
X17447134Y-14215031D01*
X17447134Y-14215031D02*
X17456658Y-14186460D01*
X17456658Y-14186460D02*
X17466182Y-14138841D01*
X17466182Y-14138841D02*
X17466182Y-14100746D01*
X17466182Y-14100746D02*
X17456658Y-14053127D01*
X17456658Y-14053127D02*
X17447134Y-14024555D01*
X17447134Y-14024555D02*
X17437611Y-14005508D01*
X17437611Y-14005508D02*
X17418563Y-13976936D01*
X17418563Y-13976936D02*
X17409039Y-13967412D01*
M02*
