%TF.GenerationSoftware,KiCad,Pcbnew,8.0.1-8.0.1-1~ubuntu22.04.1*%
%TF.CreationDate,2024-04-25T02:14:33+01:00*%
%TF.ProjectId,VQFN_breakout,5651464e-5f62-4726-9561-6b6f75742e6b,rev?*%
%TF.SameCoordinates,Original*%
%TF.FileFunction,Legend,Top*%
%TF.FilePolarity,Positive*%
%FSLAX46Y46*%
G04 Gerber Fmt 4.6, Leading zero omitted, Abs format (unit mm)*
G04 Created by KiCad (PCBNEW 8.0.1-8.0.1-1~ubuntu22.04.1) date 2024-04-25 02:14:33*
%MOMM*%
%LPD*%
G01*
G04 APERTURE LIST*
%ADD10C,0.100000*%
%ADD11C,0.120000*%
G04 APERTURE END LIST*
D10*
X143616265Y-103256361D02*
X143663884Y-103180170D01*
X143663884Y-103180170D02*
X143759122Y-103103980D01*
X143759122Y-103103980D02*
X143997217Y-103103980D01*
X143997217Y-103103980D02*
X144092455Y-103180170D01*
X144092455Y-103180170D02*
X144140074Y-103256361D01*
X144140074Y-103256361D02*
X144187693Y-103408742D01*
X144187693Y-103408742D02*
X144187693Y-103561123D01*
X144187693Y-103561123D02*
X144140074Y-103789694D01*
X144140074Y-103789694D02*
X143568646Y-104703980D01*
X143568646Y-104703980D02*
X144187693Y-104703980D01*
X145044836Y-103637313D02*
X145044836Y-104703980D01*
X144806741Y-103027790D02*
X144568646Y-104170647D01*
X144568646Y-104170647D02*
X145187693Y-104170647D01*
X143616265Y-105832271D02*
X143663884Y-105756080D01*
X143663884Y-105756080D02*
X143759122Y-105679890D01*
X143759122Y-105679890D02*
X143997217Y-105679890D01*
X143997217Y-105679890D02*
X144092455Y-105756080D01*
X144092455Y-105756080D02*
X144140074Y-105832271D01*
X144140074Y-105832271D02*
X144187693Y-105984652D01*
X144187693Y-105984652D02*
X144187693Y-106137033D01*
X144187693Y-106137033D02*
X144140074Y-106365604D01*
X144140074Y-106365604D02*
X143568646Y-107279890D01*
X143568646Y-107279890D02*
X144187693Y-107279890D01*
X144521027Y-105679890D02*
X145140074Y-105679890D01*
X145140074Y-105679890D02*
X144806741Y-106289414D01*
X144806741Y-106289414D02*
X144949598Y-106289414D01*
X144949598Y-106289414D02*
X145044836Y-106365604D01*
X145044836Y-106365604D02*
X145092455Y-106441795D01*
X145092455Y-106441795D02*
X145140074Y-106594176D01*
X145140074Y-106594176D02*
X145140074Y-106975128D01*
X145140074Y-106975128D02*
X145092455Y-107127509D01*
X145092455Y-107127509D02*
X145044836Y-107203700D01*
X145044836Y-107203700D02*
X144949598Y-107279890D01*
X144949598Y-107279890D02*
X144663884Y-107279890D01*
X144663884Y-107279890D02*
X144568646Y-107203700D01*
X144568646Y-107203700D02*
X144521027Y-107127509D01*
X143616265Y-108408181D02*
X143663884Y-108331990D01*
X143663884Y-108331990D02*
X143759122Y-108255800D01*
X143759122Y-108255800D02*
X143997217Y-108255800D01*
X143997217Y-108255800D02*
X144092455Y-108331990D01*
X144092455Y-108331990D02*
X144140074Y-108408181D01*
X144140074Y-108408181D02*
X144187693Y-108560562D01*
X144187693Y-108560562D02*
X144187693Y-108712943D01*
X144187693Y-108712943D02*
X144140074Y-108941514D01*
X144140074Y-108941514D02*
X143568646Y-109855800D01*
X143568646Y-109855800D02*
X144187693Y-109855800D01*
X144568646Y-108408181D02*
X144616265Y-108331990D01*
X144616265Y-108331990D02*
X144711503Y-108255800D01*
X144711503Y-108255800D02*
X144949598Y-108255800D01*
X144949598Y-108255800D02*
X145044836Y-108331990D01*
X145044836Y-108331990D02*
X145092455Y-108408181D01*
X145092455Y-108408181D02*
X145140074Y-108560562D01*
X145140074Y-108560562D02*
X145140074Y-108712943D01*
X145140074Y-108712943D02*
X145092455Y-108941514D01*
X145092455Y-108941514D02*
X144521027Y-109855800D01*
X144521027Y-109855800D02*
X145140074Y-109855800D01*
X143616265Y-110984091D02*
X143663884Y-110907900D01*
X143663884Y-110907900D02*
X143759122Y-110831710D01*
X143759122Y-110831710D02*
X143997217Y-110831710D01*
X143997217Y-110831710D02*
X144092455Y-110907900D01*
X144092455Y-110907900D02*
X144140074Y-110984091D01*
X144140074Y-110984091D02*
X144187693Y-111136472D01*
X144187693Y-111136472D02*
X144187693Y-111288853D01*
X144187693Y-111288853D02*
X144140074Y-111517424D01*
X144140074Y-111517424D02*
X143568646Y-112431710D01*
X143568646Y-112431710D02*
X144187693Y-112431710D01*
X145140074Y-112431710D02*
X144568646Y-112431710D01*
X144854360Y-112431710D02*
X144854360Y-110831710D01*
X144854360Y-110831710D02*
X144759122Y-111060281D01*
X144759122Y-111060281D02*
X144663884Y-111212662D01*
X144663884Y-111212662D02*
X144568646Y-111288853D01*
X143616265Y-113560001D02*
X143663884Y-113483810D01*
X143663884Y-113483810D02*
X143759122Y-113407620D01*
X143759122Y-113407620D02*
X143997217Y-113407620D01*
X143997217Y-113407620D02*
X144092455Y-113483810D01*
X144092455Y-113483810D02*
X144140074Y-113560001D01*
X144140074Y-113560001D02*
X144187693Y-113712382D01*
X144187693Y-113712382D02*
X144187693Y-113864763D01*
X144187693Y-113864763D02*
X144140074Y-114093334D01*
X144140074Y-114093334D02*
X143568646Y-115007620D01*
X143568646Y-115007620D02*
X144187693Y-115007620D01*
X144806741Y-113407620D02*
X144901979Y-113407620D01*
X144901979Y-113407620D02*
X144997217Y-113483810D01*
X144997217Y-113483810D02*
X145044836Y-113560001D01*
X145044836Y-113560001D02*
X145092455Y-113712382D01*
X145092455Y-113712382D02*
X145140074Y-114017144D01*
X145140074Y-114017144D02*
X145140074Y-114398096D01*
X145140074Y-114398096D02*
X145092455Y-114702858D01*
X145092455Y-114702858D02*
X145044836Y-114855239D01*
X145044836Y-114855239D02*
X144997217Y-114931430D01*
X144997217Y-114931430D02*
X144901979Y-115007620D01*
X144901979Y-115007620D02*
X144806741Y-115007620D01*
X144806741Y-115007620D02*
X144711503Y-114931430D01*
X144711503Y-114931430D02*
X144663884Y-114855239D01*
X144663884Y-114855239D02*
X144616265Y-114702858D01*
X144616265Y-114702858D02*
X144568646Y-114398096D01*
X144568646Y-114398096D02*
X144568646Y-114017144D01*
X144568646Y-114017144D02*
X144616265Y-113712382D01*
X144616265Y-113712382D02*
X144663884Y-113560001D01*
X144663884Y-113560001D02*
X144711503Y-113483810D01*
X144711503Y-113483810D02*
X144806741Y-113407620D01*
X144187693Y-117583530D02*
X143616265Y-117583530D01*
X143901979Y-117583530D02*
X143901979Y-115983530D01*
X143901979Y-115983530D02*
X143806741Y-116212101D01*
X143806741Y-116212101D02*
X143711503Y-116364482D01*
X143711503Y-116364482D02*
X143616265Y-116440673D01*
X144663884Y-117583530D02*
X144854360Y-117583530D01*
X144854360Y-117583530D02*
X144949598Y-117507340D01*
X144949598Y-117507340D02*
X144997217Y-117431149D01*
X144997217Y-117431149D02*
X145092455Y-117202578D01*
X145092455Y-117202578D02*
X145140074Y-116897816D01*
X145140074Y-116897816D02*
X145140074Y-116288292D01*
X145140074Y-116288292D02*
X145092455Y-116135911D01*
X145092455Y-116135911D02*
X145044836Y-116059720D01*
X145044836Y-116059720D02*
X144949598Y-115983530D01*
X144949598Y-115983530D02*
X144759122Y-115983530D01*
X144759122Y-115983530D02*
X144663884Y-116059720D01*
X144663884Y-116059720D02*
X144616265Y-116135911D01*
X144616265Y-116135911D02*
X144568646Y-116288292D01*
X144568646Y-116288292D02*
X144568646Y-116669244D01*
X144568646Y-116669244D02*
X144616265Y-116821625D01*
X144616265Y-116821625D02*
X144663884Y-116897816D01*
X144663884Y-116897816D02*
X144759122Y-116974006D01*
X144759122Y-116974006D02*
X144949598Y-116974006D01*
X144949598Y-116974006D02*
X145044836Y-116897816D01*
X145044836Y-116897816D02*
X145092455Y-116821625D01*
X145092455Y-116821625D02*
X145140074Y-116669244D01*
X144187693Y-120159440D02*
X143616265Y-120159440D01*
X143901979Y-120159440D02*
X143901979Y-118559440D01*
X143901979Y-118559440D02*
X143806741Y-118788011D01*
X143806741Y-118788011D02*
X143711503Y-118940392D01*
X143711503Y-118940392D02*
X143616265Y-119016583D01*
X144759122Y-119245154D02*
X144663884Y-119168964D01*
X144663884Y-119168964D02*
X144616265Y-119092773D01*
X144616265Y-119092773D02*
X144568646Y-118940392D01*
X144568646Y-118940392D02*
X144568646Y-118864202D01*
X144568646Y-118864202D02*
X144616265Y-118711821D01*
X144616265Y-118711821D02*
X144663884Y-118635630D01*
X144663884Y-118635630D02*
X144759122Y-118559440D01*
X144759122Y-118559440D02*
X144949598Y-118559440D01*
X144949598Y-118559440D02*
X145044836Y-118635630D01*
X145044836Y-118635630D02*
X145092455Y-118711821D01*
X145092455Y-118711821D02*
X145140074Y-118864202D01*
X145140074Y-118864202D02*
X145140074Y-118940392D01*
X145140074Y-118940392D02*
X145092455Y-119092773D01*
X145092455Y-119092773D02*
X145044836Y-119168964D01*
X145044836Y-119168964D02*
X144949598Y-119245154D01*
X144949598Y-119245154D02*
X144759122Y-119245154D01*
X144759122Y-119245154D02*
X144663884Y-119321345D01*
X144663884Y-119321345D02*
X144616265Y-119397535D01*
X144616265Y-119397535D02*
X144568646Y-119549916D01*
X144568646Y-119549916D02*
X144568646Y-119854678D01*
X144568646Y-119854678D02*
X144616265Y-120007059D01*
X144616265Y-120007059D02*
X144663884Y-120083250D01*
X144663884Y-120083250D02*
X144759122Y-120159440D01*
X144759122Y-120159440D02*
X144949598Y-120159440D01*
X144949598Y-120159440D02*
X145044836Y-120083250D01*
X145044836Y-120083250D02*
X145092455Y-120007059D01*
X145092455Y-120007059D02*
X145140074Y-119854678D01*
X145140074Y-119854678D02*
X145140074Y-119549916D01*
X145140074Y-119549916D02*
X145092455Y-119397535D01*
X145092455Y-119397535D02*
X145044836Y-119321345D01*
X145044836Y-119321345D02*
X144949598Y-119245154D01*
X144187693Y-122735350D02*
X143616265Y-122735350D01*
X143901979Y-122735350D02*
X143901979Y-121135350D01*
X143901979Y-121135350D02*
X143806741Y-121363921D01*
X143806741Y-121363921D02*
X143711503Y-121516302D01*
X143711503Y-121516302D02*
X143616265Y-121592493D01*
X144521027Y-121135350D02*
X145187693Y-121135350D01*
X145187693Y-121135350D02*
X144759122Y-122735350D01*
X144187693Y-125311260D02*
X143616265Y-125311260D01*
X143901979Y-125311260D02*
X143901979Y-123711260D01*
X143901979Y-123711260D02*
X143806741Y-123939831D01*
X143806741Y-123939831D02*
X143711503Y-124092212D01*
X143711503Y-124092212D02*
X143616265Y-124168403D01*
X145044836Y-123711260D02*
X144854360Y-123711260D01*
X144854360Y-123711260D02*
X144759122Y-123787450D01*
X144759122Y-123787450D02*
X144711503Y-123863641D01*
X144711503Y-123863641D02*
X144616265Y-124092212D01*
X144616265Y-124092212D02*
X144568646Y-124396974D01*
X144568646Y-124396974D02*
X144568646Y-125006498D01*
X144568646Y-125006498D02*
X144616265Y-125158879D01*
X144616265Y-125158879D02*
X144663884Y-125235070D01*
X144663884Y-125235070D02*
X144759122Y-125311260D01*
X144759122Y-125311260D02*
X144949598Y-125311260D01*
X144949598Y-125311260D02*
X145044836Y-125235070D01*
X145044836Y-125235070D02*
X145092455Y-125158879D01*
X145092455Y-125158879D02*
X145140074Y-125006498D01*
X145140074Y-125006498D02*
X145140074Y-124625546D01*
X145140074Y-124625546D02*
X145092455Y-124473165D01*
X145092455Y-124473165D02*
X145044836Y-124396974D01*
X145044836Y-124396974D02*
X144949598Y-124320784D01*
X144949598Y-124320784D02*
X144759122Y-124320784D01*
X144759122Y-124320784D02*
X144663884Y-124396974D01*
X144663884Y-124396974D02*
X144616265Y-124473165D01*
X144616265Y-124473165D02*
X144568646Y-124625546D01*
X144187693Y-127887170D02*
X143616265Y-127887170D01*
X143901979Y-127887170D02*
X143901979Y-126287170D01*
X143901979Y-126287170D02*
X143806741Y-126515741D01*
X143806741Y-126515741D02*
X143711503Y-126668122D01*
X143711503Y-126668122D02*
X143616265Y-126744313D01*
X145092455Y-126287170D02*
X144616265Y-126287170D01*
X144616265Y-126287170D02*
X144568646Y-127049075D01*
X144568646Y-127049075D02*
X144616265Y-126972884D01*
X144616265Y-126972884D02*
X144711503Y-126896694D01*
X144711503Y-126896694D02*
X144949598Y-126896694D01*
X144949598Y-126896694D02*
X145044836Y-126972884D01*
X145044836Y-126972884D02*
X145092455Y-127049075D01*
X145092455Y-127049075D02*
X145140074Y-127201456D01*
X145140074Y-127201456D02*
X145140074Y-127582408D01*
X145140074Y-127582408D02*
X145092455Y-127734789D01*
X145092455Y-127734789D02*
X145044836Y-127810980D01*
X145044836Y-127810980D02*
X144949598Y-127887170D01*
X144949598Y-127887170D02*
X144711503Y-127887170D01*
X144711503Y-127887170D02*
X144616265Y-127810980D01*
X144616265Y-127810980D02*
X144568646Y-127734789D01*
X144187693Y-130463080D02*
X143616265Y-130463080D01*
X143901979Y-130463080D02*
X143901979Y-128863080D01*
X143901979Y-128863080D02*
X143806741Y-129091651D01*
X143806741Y-129091651D02*
X143711503Y-129244032D01*
X143711503Y-129244032D02*
X143616265Y-129320223D01*
X145044836Y-129396413D02*
X145044836Y-130463080D01*
X144806741Y-128786890D02*
X144568646Y-129929747D01*
X144568646Y-129929747D02*
X145187693Y-129929747D01*
X144187693Y-133038990D02*
X143616265Y-133038990D01*
X143901979Y-133038990D02*
X143901979Y-131438990D01*
X143901979Y-131438990D02*
X143806741Y-131667561D01*
X143806741Y-131667561D02*
X143711503Y-131819942D01*
X143711503Y-131819942D02*
X143616265Y-131896133D01*
X144521027Y-131438990D02*
X145140074Y-131438990D01*
X145140074Y-131438990D02*
X144806741Y-132048514D01*
X144806741Y-132048514D02*
X144949598Y-132048514D01*
X144949598Y-132048514D02*
X145044836Y-132124704D01*
X145044836Y-132124704D02*
X145092455Y-132200895D01*
X145092455Y-132200895D02*
X145140074Y-132353276D01*
X145140074Y-132353276D02*
X145140074Y-132734228D01*
X145140074Y-132734228D02*
X145092455Y-132886609D01*
X145092455Y-132886609D02*
X145044836Y-132962800D01*
X145044836Y-132962800D02*
X144949598Y-133038990D01*
X144949598Y-133038990D02*
X144663884Y-133038990D01*
X144663884Y-133038990D02*
X144568646Y-132962800D01*
X144568646Y-132962800D02*
X144521027Y-132886609D01*
X129887693Y-104703980D02*
X129316265Y-104703980D01*
X129601979Y-104703980D02*
X129601979Y-103103980D01*
X129601979Y-103103980D02*
X129506741Y-103332551D01*
X129506741Y-103332551D02*
X129411503Y-103484932D01*
X129411503Y-103484932D02*
X129316265Y-103561123D01*
X129316265Y-105832271D02*
X129363884Y-105756080D01*
X129363884Y-105756080D02*
X129459122Y-105679890D01*
X129459122Y-105679890D02*
X129697217Y-105679890D01*
X129697217Y-105679890D02*
X129792455Y-105756080D01*
X129792455Y-105756080D02*
X129840074Y-105832271D01*
X129840074Y-105832271D02*
X129887693Y-105984652D01*
X129887693Y-105984652D02*
X129887693Y-106137033D01*
X129887693Y-106137033D02*
X129840074Y-106365604D01*
X129840074Y-106365604D02*
X129268646Y-107279890D01*
X129268646Y-107279890D02*
X129887693Y-107279890D01*
X129268646Y-108255800D02*
X129887693Y-108255800D01*
X129887693Y-108255800D02*
X129554360Y-108865324D01*
X129554360Y-108865324D02*
X129697217Y-108865324D01*
X129697217Y-108865324D02*
X129792455Y-108941514D01*
X129792455Y-108941514D02*
X129840074Y-109017705D01*
X129840074Y-109017705D02*
X129887693Y-109170086D01*
X129887693Y-109170086D02*
X129887693Y-109551038D01*
X129887693Y-109551038D02*
X129840074Y-109703419D01*
X129840074Y-109703419D02*
X129792455Y-109779610D01*
X129792455Y-109779610D02*
X129697217Y-109855800D01*
X129697217Y-109855800D02*
X129411503Y-109855800D01*
X129411503Y-109855800D02*
X129316265Y-109779610D01*
X129316265Y-109779610D02*
X129268646Y-109703419D01*
X129792455Y-111365043D02*
X129792455Y-112431710D01*
X129554360Y-110755520D02*
X129316265Y-111898377D01*
X129316265Y-111898377D02*
X129935312Y-111898377D01*
X129840074Y-113407620D02*
X129363884Y-113407620D01*
X129363884Y-113407620D02*
X129316265Y-114169525D01*
X129316265Y-114169525D02*
X129363884Y-114093334D01*
X129363884Y-114093334D02*
X129459122Y-114017144D01*
X129459122Y-114017144D02*
X129697217Y-114017144D01*
X129697217Y-114017144D02*
X129792455Y-114093334D01*
X129792455Y-114093334D02*
X129840074Y-114169525D01*
X129840074Y-114169525D02*
X129887693Y-114321906D01*
X129887693Y-114321906D02*
X129887693Y-114702858D01*
X129887693Y-114702858D02*
X129840074Y-114855239D01*
X129840074Y-114855239D02*
X129792455Y-114931430D01*
X129792455Y-114931430D02*
X129697217Y-115007620D01*
X129697217Y-115007620D02*
X129459122Y-115007620D01*
X129459122Y-115007620D02*
X129363884Y-114931430D01*
X129363884Y-114931430D02*
X129316265Y-114855239D01*
X129792455Y-115983530D02*
X129601979Y-115983530D01*
X129601979Y-115983530D02*
X129506741Y-116059720D01*
X129506741Y-116059720D02*
X129459122Y-116135911D01*
X129459122Y-116135911D02*
X129363884Y-116364482D01*
X129363884Y-116364482D02*
X129316265Y-116669244D01*
X129316265Y-116669244D02*
X129316265Y-117278768D01*
X129316265Y-117278768D02*
X129363884Y-117431149D01*
X129363884Y-117431149D02*
X129411503Y-117507340D01*
X129411503Y-117507340D02*
X129506741Y-117583530D01*
X129506741Y-117583530D02*
X129697217Y-117583530D01*
X129697217Y-117583530D02*
X129792455Y-117507340D01*
X129792455Y-117507340D02*
X129840074Y-117431149D01*
X129840074Y-117431149D02*
X129887693Y-117278768D01*
X129887693Y-117278768D02*
X129887693Y-116897816D01*
X129887693Y-116897816D02*
X129840074Y-116745435D01*
X129840074Y-116745435D02*
X129792455Y-116669244D01*
X129792455Y-116669244D02*
X129697217Y-116593054D01*
X129697217Y-116593054D02*
X129506741Y-116593054D01*
X129506741Y-116593054D02*
X129411503Y-116669244D01*
X129411503Y-116669244D02*
X129363884Y-116745435D01*
X129363884Y-116745435D02*
X129316265Y-116897816D01*
X129268646Y-118559440D02*
X129935312Y-118559440D01*
X129935312Y-118559440D02*
X129506741Y-120159440D01*
X129506741Y-121821064D02*
X129411503Y-121744874D01*
X129411503Y-121744874D02*
X129363884Y-121668683D01*
X129363884Y-121668683D02*
X129316265Y-121516302D01*
X129316265Y-121516302D02*
X129316265Y-121440112D01*
X129316265Y-121440112D02*
X129363884Y-121287731D01*
X129363884Y-121287731D02*
X129411503Y-121211540D01*
X129411503Y-121211540D02*
X129506741Y-121135350D01*
X129506741Y-121135350D02*
X129697217Y-121135350D01*
X129697217Y-121135350D02*
X129792455Y-121211540D01*
X129792455Y-121211540D02*
X129840074Y-121287731D01*
X129840074Y-121287731D02*
X129887693Y-121440112D01*
X129887693Y-121440112D02*
X129887693Y-121516302D01*
X129887693Y-121516302D02*
X129840074Y-121668683D01*
X129840074Y-121668683D02*
X129792455Y-121744874D01*
X129792455Y-121744874D02*
X129697217Y-121821064D01*
X129697217Y-121821064D02*
X129506741Y-121821064D01*
X129506741Y-121821064D02*
X129411503Y-121897255D01*
X129411503Y-121897255D02*
X129363884Y-121973445D01*
X129363884Y-121973445D02*
X129316265Y-122125826D01*
X129316265Y-122125826D02*
X129316265Y-122430588D01*
X129316265Y-122430588D02*
X129363884Y-122582969D01*
X129363884Y-122582969D02*
X129411503Y-122659160D01*
X129411503Y-122659160D02*
X129506741Y-122735350D01*
X129506741Y-122735350D02*
X129697217Y-122735350D01*
X129697217Y-122735350D02*
X129792455Y-122659160D01*
X129792455Y-122659160D02*
X129840074Y-122582969D01*
X129840074Y-122582969D02*
X129887693Y-122430588D01*
X129887693Y-122430588D02*
X129887693Y-122125826D01*
X129887693Y-122125826D02*
X129840074Y-121973445D01*
X129840074Y-121973445D02*
X129792455Y-121897255D01*
X129792455Y-121897255D02*
X129697217Y-121821064D01*
X129411503Y-125311260D02*
X129601979Y-125311260D01*
X129601979Y-125311260D02*
X129697217Y-125235070D01*
X129697217Y-125235070D02*
X129744836Y-125158879D01*
X129744836Y-125158879D02*
X129840074Y-124930308D01*
X129840074Y-124930308D02*
X129887693Y-124625546D01*
X129887693Y-124625546D02*
X129887693Y-124016022D01*
X129887693Y-124016022D02*
X129840074Y-123863641D01*
X129840074Y-123863641D02*
X129792455Y-123787450D01*
X129792455Y-123787450D02*
X129697217Y-123711260D01*
X129697217Y-123711260D02*
X129506741Y-123711260D01*
X129506741Y-123711260D02*
X129411503Y-123787450D01*
X129411503Y-123787450D02*
X129363884Y-123863641D01*
X129363884Y-123863641D02*
X129316265Y-124016022D01*
X129316265Y-124016022D02*
X129316265Y-124396974D01*
X129316265Y-124396974D02*
X129363884Y-124549355D01*
X129363884Y-124549355D02*
X129411503Y-124625546D01*
X129411503Y-124625546D02*
X129506741Y-124701736D01*
X129506741Y-124701736D02*
X129697217Y-124701736D01*
X129697217Y-124701736D02*
X129792455Y-124625546D01*
X129792455Y-124625546D02*
X129840074Y-124549355D01*
X129840074Y-124549355D02*
X129887693Y-124396974D01*
X129887693Y-127887170D02*
X129316265Y-127887170D01*
X129601979Y-127887170D02*
X129601979Y-126287170D01*
X129601979Y-126287170D02*
X129506741Y-126515741D01*
X129506741Y-126515741D02*
X129411503Y-126668122D01*
X129411503Y-126668122D02*
X129316265Y-126744313D01*
X130506741Y-126287170D02*
X130601979Y-126287170D01*
X130601979Y-126287170D02*
X130697217Y-126363360D01*
X130697217Y-126363360D02*
X130744836Y-126439551D01*
X130744836Y-126439551D02*
X130792455Y-126591932D01*
X130792455Y-126591932D02*
X130840074Y-126896694D01*
X130840074Y-126896694D02*
X130840074Y-127277646D01*
X130840074Y-127277646D02*
X130792455Y-127582408D01*
X130792455Y-127582408D02*
X130744836Y-127734789D01*
X130744836Y-127734789D02*
X130697217Y-127810980D01*
X130697217Y-127810980D02*
X130601979Y-127887170D01*
X130601979Y-127887170D02*
X130506741Y-127887170D01*
X130506741Y-127887170D02*
X130411503Y-127810980D01*
X130411503Y-127810980D02*
X130363884Y-127734789D01*
X130363884Y-127734789D02*
X130316265Y-127582408D01*
X130316265Y-127582408D02*
X130268646Y-127277646D01*
X130268646Y-127277646D02*
X130268646Y-126896694D01*
X130268646Y-126896694D02*
X130316265Y-126591932D01*
X130316265Y-126591932D02*
X130363884Y-126439551D01*
X130363884Y-126439551D02*
X130411503Y-126363360D01*
X130411503Y-126363360D02*
X130506741Y-126287170D01*
X129887693Y-130463080D02*
X129316265Y-130463080D01*
X129601979Y-130463080D02*
X129601979Y-128863080D01*
X129601979Y-128863080D02*
X129506741Y-129091651D01*
X129506741Y-129091651D02*
X129411503Y-129244032D01*
X129411503Y-129244032D02*
X129316265Y-129320223D01*
X130840074Y-130463080D02*
X130268646Y-130463080D01*
X130554360Y-130463080D02*
X130554360Y-128863080D01*
X130554360Y-128863080D02*
X130459122Y-129091651D01*
X130459122Y-129091651D02*
X130363884Y-129244032D01*
X130363884Y-129244032D02*
X130268646Y-129320223D01*
X129887693Y-133038990D02*
X129316265Y-133038990D01*
X129601979Y-133038990D02*
X129601979Y-131438990D01*
X129601979Y-131438990D02*
X129506741Y-131667561D01*
X129506741Y-131667561D02*
X129411503Y-131819942D01*
X129411503Y-131819942D02*
X129316265Y-131896133D01*
X130268646Y-131591371D02*
X130316265Y-131515180D01*
X130316265Y-131515180D02*
X130411503Y-131438990D01*
X130411503Y-131438990D02*
X130649598Y-131438990D01*
X130649598Y-131438990D02*
X130744836Y-131515180D01*
X130744836Y-131515180D02*
X130792455Y-131591371D01*
X130792455Y-131591371D02*
X130840074Y-131743752D01*
X130840074Y-131743752D02*
X130840074Y-131896133D01*
X130840074Y-131896133D02*
X130792455Y-132124704D01*
X130792455Y-132124704D02*
X130221027Y-133038990D01*
X130221027Y-133038990D02*
X130840074Y-133038990D01*
X132273408Y-132212419D02*
X132440074Y-133212419D01*
X132440074Y-133212419D02*
X132606741Y-132212419D01*
X133106740Y-133307657D02*
X133059121Y-133260038D01*
X133059121Y-133260038D02*
X133011502Y-133164800D01*
X133011502Y-133164800D02*
X132940074Y-133021942D01*
X132940074Y-133021942D02*
X132892455Y-132974323D01*
X132892455Y-132974323D02*
X132844836Y-132974323D01*
X132868645Y-133212419D02*
X132821026Y-133164800D01*
X132821026Y-133164800D02*
X132773407Y-133069561D01*
X132773407Y-133069561D02*
X132749598Y-132879085D01*
X132749598Y-132879085D02*
X132749598Y-132545752D01*
X132749598Y-132545752D02*
X132773407Y-132355276D01*
X132773407Y-132355276D02*
X132821026Y-132260038D01*
X132821026Y-132260038D02*
X132868645Y-132212419D01*
X132868645Y-132212419D02*
X132963883Y-132212419D01*
X132963883Y-132212419D02*
X133011502Y-132260038D01*
X133011502Y-132260038D02*
X133059121Y-132355276D01*
X133059121Y-132355276D02*
X133082931Y-132545752D01*
X133082931Y-132545752D02*
X133082931Y-132879085D01*
X133082931Y-132879085D02*
X133059121Y-133069561D01*
X133059121Y-133069561D02*
X133011502Y-133164800D01*
X133011502Y-133164800D02*
X132963883Y-133212419D01*
X132963883Y-133212419D02*
X132868645Y-133212419D01*
X133463884Y-132688609D02*
X133297217Y-132688609D01*
X133297217Y-133212419D02*
X133297217Y-132212419D01*
X133297217Y-132212419D02*
X133535312Y-132212419D01*
X133725788Y-133212419D02*
X133725788Y-132212419D01*
X133725788Y-132212419D02*
X134011502Y-133212419D01*
X134011502Y-133212419D02*
X134011502Y-132212419D01*
X134844836Y-132545752D02*
X134844836Y-133212419D01*
X134725788Y-132164800D02*
X134606741Y-132879085D01*
X134606741Y-132879085D02*
X134916264Y-132879085D01*
X135106740Y-133212419D02*
X135106740Y-132545752D01*
X135106740Y-132640990D02*
X135130550Y-132593371D01*
X135130550Y-132593371D02*
X135178169Y-132545752D01*
X135178169Y-132545752D02*
X135249597Y-132545752D01*
X135249597Y-132545752D02*
X135297216Y-132593371D01*
X135297216Y-132593371D02*
X135321026Y-132688609D01*
X135321026Y-132688609D02*
X135321026Y-133212419D01*
X135321026Y-132688609D02*
X135344835Y-132593371D01*
X135344835Y-132593371D02*
X135392454Y-132545752D01*
X135392454Y-132545752D02*
X135463883Y-132545752D01*
X135463883Y-132545752D02*
X135511502Y-132593371D01*
X135511502Y-132593371D02*
X135535312Y-132688609D01*
X135535312Y-132688609D02*
X135535312Y-133212419D01*
X135773407Y-133212419D02*
X135773407Y-132545752D01*
X135773407Y-132640990D02*
X135797217Y-132593371D01*
X135797217Y-132593371D02*
X135844836Y-132545752D01*
X135844836Y-132545752D02*
X135916264Y-132545752D01*
X135916264Y-132545752D02*
X135963883Y-132593371D01*
X135963883Y-132593371D02*
X135987693Y-132688609D01*
X135987693Y-132688609D02*
X135987693Y-133212419D01*
X135987693Y-132688609D02*
X136011502Y-132593371D01*
X136011502Y-132593371D02*
X136059121Y-132545752D01*
X136059121Y-132545752D02*
X136130550Y-132545752D01*
X136130550Y-132545752D02*
X136178169Y-132593371D01*
X136178169Y-132593371D02*
X136201979Y-132688609D01*
X136201979Y-132688609D02*
X136201979Y-133212419D01*
X136773407Y-133212419D02*
X137035312Y-132545752D01*
X136773407Y-132545752D02*
X137035312Y-133212419D01*
X137821026Y-132545752D02*
X137821026Y-133212419D01*
X137701978Y-132164800D02*
X137582931Y-132879085D01*
X137582931Y-132879085D02*
X137892454Y-132879085D01*
X138082930Y-133212419D02*
X138082930Y-132545752D01*
X138082930Y-132640990D02*
X138106740Y-132593371D01*
X138106740Y-132593371D02*
X138154359Y-132545752D01*
X138154359Y-132545752D02*
X138225787Y-132545752D01*
X138225787Y-132545752D02*
X138273406Y-132593371D01*
X138273406Y-132593371D02*
X138297216Y-132688609D01*
X138297216Y-132688609D02*
X138297216Y-133212419D01*
X138297216Y-132688609D02*
X138321025Y-132593371D01*
X138321025Y-132593371D02*
X138368644Y-132545752D01*
X138368644Y-132545752D02*
X138440073Y-132545752D01*
X138440073Y-132545752D02*
X138487692Y-132593371D01*
X138487692Y-132593371D02*
X138511502Y-132688609D01*
X138511502Y-132688609D02*
X138511502Y-133212419D01*
X138749597Y-133212419D02*
X138749597Y-132545752D01*
X138749597Y-132640990D02*
X138773407Y-132593371D01*
X138773407Y-132593371D02*
X138821026Y-132545752D01*
X138821026Y-132545752D02*
X138892454Y-132545752D01*
X138892454Y-132545752D02*
X138940073Y-132593371D01*
X138940073Y-132593371D02*
X138963883Y-132688609D01*
X138963883Y-132688609D02*
X138963883Y-133212419D01*
X138963883Y-132688609D02*
X138987692Y-132593371D01*
X138987692Y-132593371D02*
X139035311Y-132545752D01*
X139035311Y-132545752D02*
X139106740Y-132545752D01*
X139106740Y-132545752D02*
X139154359Y-132593371D01*
X139154359Y-132593371D02*
X139178169Y-132688609D01*
X139178169Y-132688609D02*
X139178169Y-133212419D01*
X139797216Y-133212419D02*
X139797216Y-132212419D01*
X139797216Y-132212419D02*
X139987692Y-132212419D01*
X139987692Y-132212419D02*
X140035311Y-132260038D01*
X140035311Y-132260038D02*
X140059121Y-132307657D01*
X140059121Y-132307657D02*
X140082930Y-132402895D01*
X140082930Y-132402895D02*
X140082930Y-132545752D01*
X140082930Y-132545752D02*
X140059121Y-132640990D01*
X140059121Y-132640990D02*
X140035311Y-132688609D01*
X140035311Y-132688609D02*
X139987692Y-132736228D01*
X139987692Y-132736228D02*
X139797216Y-132736228D01*
X140392454Y-132212419D02*
X140440073Y-132212419D01*
X140440073Y-132212419D02*
X140487692Y-132260038D01*
X140487692Y-132260038D02*
X140511502Y-132307657D01*
X140511502Y-132307657D02*
X140535311Y-132402895D01*
X140535311Y-132402895D02*
X140559121Y-132593371D01*
X140559121Y-132593371D02*
X140559121Y-132831466D01*
X140559121Y-132831466D02*
X140535311Y-133021942D01*
X140535311Y-133021942D02*
X140511502Y-133117180D01*
X140511502Y-133117180D02*
X140487692Y-133164800D01*
X140487692Y-133164800D02*
X140440073Y-133212419D01*
X140440073Y-133212419D02*
X140392454Y-133212419D01*
X140392454Y-133212419D02*
X140344835Y-133164800D01*
X140344835Y-133164800D02*
X140321026Y-133117180D01*
X140321026Y-133117180D02*
X140297216Y-133021942D01*
X140297216Y-133021942D02*
X140273407Y-132831466D01*
X140273407Y-132831466D02*
X140273407Y-132593371D01*
X140273407Y-132593371D02*
X140297216Y-132402895D01*
X140297216Y-132402895D02*
X140321026Y-132307657D01*
X140321026Y-132307657D02*
X140344835Y-132260038D01*
X140344835Y-132260038D02*
X140392454Y-132212419D01*
X140773406Y-133117180D02*
X140797216Y-133164800D01*
X140797216Y-133164800D02*
X140773406Y-133212419D01*
X140773406Y-133212419D02*
X140749597Y-133164800D01*
X140749597Y-133164800D02*
X140773406Y-133117180D01*
X140773406Y-133117180D02*
X140773406Y-133212419D01*
X141249596Y-132212419D02*
X141011501Y-132212419D01*
X141011501Y-132212419D02*
X140987692Y-132688609D01*
X140987692Y-132688609D02*
X141011501Y-132640990D01*
X141011501Y-132640990D02*
X141059120Y-132593371D01*
X141059120Y-132593371D02*
X141178168Y-132593371D01*
X141178168Y-132593371D02*
X141225787Y-132640990D01*
X141225787Y-132640990D02*
X141249596Y-132688609D01*
X141249596Y-132688609D02*
X141273406Y-132783847D01*
X141273406Y-132783847D02*
X141273406Y-133021942D01*
X141273406Y-133021942D02*
X141249596Y-133117180D01*
X141249596Y-133117180D02*
X141225787Y-133164800D01*
X141225787Y-133164800D02*
X141178168Y-133212419D01*
X141178168Y-133212419D02*
X141059120Y-133212419D01*
X141059120Y-133212419D02*
X141011501Y-133164800D01*
X141011501Y-133164800D02*
X140987692Y-133117180D01*
X141487691Y-133212419D02*
X141487691Y-132545752D01*
X141487691Y-132640990D02*
X141511501Y-132593371D01*
X141511501Y-132593371D02*
X141559120Y-132545752D01*
X141559120Y-132545752D02*
X141630548Y-132545752D01*
X141630548Y-132545752D02*
X141678167Y-132593371D01*
X141678167Y-132593371D02*
X141701977Y-132688609D01*
X141701977Y-132688609D02*
X141701977Y-133212419D01*
X141701977Y-132688609D02*
X141725786Y-132593371D01*
X141725786Y-132593371D02*
X141773405Y-132545752D01*
X141773405Y-132545752D02*
X141844834Y-132545752D01*
X141844834Y-132545752D02*
X141892453Y-132593371D01*
X141892453Y-132593371D02*
X141916263Y-132688609D01*
X141916263Y-132688609D02*
X141916263Y-133212419D01*
X142154358Y-133212419D02*
X142154358Y-132545752D01*
X142154358Y-132640990D02*
X142178168Y-132593371D01*
X142178168Y-132593371D02*
X142225787Y-132545752D01*
X142225787Y-132545752D02*
X142297215Y-132545752D01*
X142297215Y-132545752D02*
X142344834Y-132593371D01*
X142344834Y-132593371D02*
X142368644Y-132688609D01*
X142368644Y-132688609D02*
X142368644Y-133212419D01*
X142368644Y-132688609D02*
X142392453Y-132593371D01*
X142392453Y-132593371D02*
X142440072Y-132545752D01*
X142440072Y-132545752D02*
X142511501Y-132545752D01*
X142511501Y-132545752D02*
X142559120Y-132593371D01*
X142559120Y-132593371D02*
X142582930Y-132688609D01*
X142582930Y-132688609D02*
X142582930Y-133212419D01*
D11*
%TO.C,J2*%
X148650000Y-130810000D02*
X148650000Y-102810000D01*
X148650000Y-130810000D02*
X145990000Y-130810000D01*
X148650000Y-102810000D02*
X145990000Y-102810000D01*
X147320000Y-133410000D02*
X145990000Y-133410000D01*
X145990000Y-133410000D02*
X145990000Y-132080000D01*
X145990000Y-130810000D02*
X145990000Y-102810000D01*
%TO.C,J1*%
X125670000Y-105410000D02*
X125670000Y-133410000D01*
X125670000Y-105410000D02*
X128330000Y-105410000D01*
X125670000Y-133410000D02*
X128330000Y-133410000D01*
X127000000Y-102810000D02*
X128330000Y-102810000D01*
X128330000Y-102810000D02*
X128330000Y-104140000D01*
X128330000Y-105410000D02*
X128330000Y-133410000D01*
%TO.C,U1*%
X134400000Y-115855000D02*
X134400000Y-115620000D01*
X134400000Y-119600000D02*
X134400000Y-119125000D01*
X134875000Y-115380000D02*
X134700000Y-115380000D01*
X134875000Y-119600000D02*
X134400000Y-119600000D01*
X138145000Y-115380000D02*
X138620000Y-115380000D01*
X138145000Y-119600000D02*
X138620000Y-119600000D01*
X138620000Y-115380000D02*
X138620000Y-115855000D01*
X138620000Y-119600000D02*
X138620000Y-119125000D01*
X134400000Y-115380000D02*
X134160000Y-115050000D01*
X134640000Y-115050000D01*
X134400000Y-115380000D01*
G36*
X134400000Y-115380000D02*
G01*
X134160000Y-115050000D01*
X134640000Y-115050000D01*
X134400000Y-115380000D01*
G37*
%TD*%
M02*
