%TF.GenerationSoftware,KiCad,Pcbnew,8.0.1-8.0.1-1~ubuntu22.04.1*%
%TF.CreationDate,2024-04-25T02:13:17+01:00*%
%TF.ProjectId,VQFN_breakout,5651464e-5f62-4726-9561-6b6f75742e6b,rev?*%
%TF.SameCoordinates,Original*%
%TF.FileFunction,Drillmap*%
%TF.FilePolarity,Positive*%
%FSLAX45Y45*%
G04 Gerber Fmt 4.5, Leading zero omitted, Abs format (unit mm)*
G04 Created by KiCad (PCBNEW 8.0.1-8.0.1-1~ubuntu22.04.1) date 2024-04-25 02:13:17*
%MOMM*%
%LPD*%
G01*
G04 APERTURE LIST*
%ADD10C,0.050000*%
%ADD11C,0.200000*%
G04 APERTURE END LIST*
D10*
X12446000Y-10160000D02*
X14986000Y-10160000D01*
X14986000Y-13462000D01*
X12446000Y-13462000D01*
X12446000Y-10160000D01*
D11*
X12704277Y-13775984D02*
X12704277Y-13575984D01*
X12704277Y-13575984D02*
X12751896Y-13575984D01*
X12751896Y-13575984D02*
X12780467Y-13585508D01*
X12780467Y-13585508D02*
X12799515Y-13604555D01*
X12799515Y-13604555D02*
X12809039Y-13623603D01*
X12809039Y-13623603D02*
X12818562Y-13661698D01*
X12818562Y-13661698D02*
X12818562Y-13690269D01*
X12818562Y-13690269D02*
X12809039Y-13728365D01*
X12809039Y-13728365D02*
X12799515Y-13747412D01*
X12799515Y-13747412D02*
X12780467Y-13766460D01*
X12780467Y-13766460D02*
X12751896Y-13775984D01*
X12751896Y-13775984D02*
X12704277Y-13775984D01*
X12904277Y-13775984D02*
X12904277Y-13642650D01*
X12904277Y-13680746D02*
X12913801Y-13661698D01*
X12913801Y-13661698D02*
X12923324Y-13652174D01*
X12923324Y-13652174D02*
X12942372Y-13642650D01*
X12942372Y-13642650D02*
X12961420Y-13642650D01*
X13028086Y-13775984D02*
X13028086Y-13642650D01*
X13028086Y-13575984D02*
X13018562Y-13585508D01*
X13018562Y-13585508D02*
X13028086Y-13595031D01*
X13028086Y-13595031D02*
X13037610Y-13585508D01*
X13037610Y-13585508D02*
X13028086Y-13575984D01*
X13028086Y-13575984D02*
X13028086Y-13595031D01*
X13151896Y-13775984D02*
X13132848Y-13766460D01*
X13132848Y-13766460D02*
X13123324Y-13747412D01*
X13123324Y-13747412D02*
X13123324Y-13575984D01*
X13256658Y-13775984D02*
X13237610Y-13766460D01*
X13237610Y-13766460D02*
X13228086Y-13747412D01*
X13228086Y-13747412D02*
X13228086Y-13575984D01*
X13485229Y-13775984D02*
X13485229Y-13575984D01*
X13485229Y-13575984D02*
X13551896Y-13718841D01*
X13551896Y-13718841D02*
X13618562Y-13575984D01*
X13618562Y-13575984D02*
X13618562Y-13775984D01*
X13799515Y-13775984D02*
X13799515Y-13671222D01*
X13799515Y-13671222D02*
X13789991Y-13652174D01*
X13789991Y-13652174D02*
X13770943Y-13642650D01*
X13770943Y-13642650D02*
X13732848Y-13642650D01*
X13732848Y-13642650D02*
X13713801Y-13652174D01*
X13799515Y-13766460D02*
X13780467Y-13775984D01*
X13780467Y-13775984D02*
X13732848Y-13775984D01*
X13732848Y-13775984D02*
X13713801Y-13766460D01*
X13713801Y-13766460D02*
X13704277Y-13747412D01*
X13704277Y-13747412D02*
X13704277Y-13728365D01*
X13704277Y-13728365D02*
X13713801Y-13709317D01*
X13713801Y-13709317D02*
X13732848Y-13699793D01*
X13732848Y-13699793D02*
X13780467Y-13699793D01*
X13780467Y-13699793D02*
X13799515Y-13690269D01*
X13894753Y-13642650D02*
X13894753Y-13842650D01*
X13894753Y-13652174D02*
X13913801Y-13642650D01*
X13913801Y-13642650D02*
X13951896Y-13642650D01*
X13951896Y-13642650D02*
X13970943Y-13652174D01*
X13970943Y-13652174D02*
X13980467Y-13661698D01*
X13980467Y-13661698D02*
X13989991Y-13680746D01*
X13989991Y-13680746D02*
X13989991Y-13737888D01*
X13989991Y-13737888D02*
X13980467Y-13756936D01*
X13980467Y-13756936D02*
X13970943Y-13766460D01*
X13970943Y-13766460D02*
X13951896Y-13775984D01*
X13951896Y-13775984D02*
X13913801Y-13775984D01*
X13913801Y-13775984D02*
X13894753Y-13766460D01*
X14075705Y-13756936D02*
X14085229Y-13766460D01*
X14085229Y-13766460D02*
X14075705Y-13775984D01*
X14075705Y-13775984D02*
X14066182Y-13766460D01*
X14066182Y-13766460D02*
X14075705Y-13756936D01*
X14075705Y-13756936D02*
X14075705Y-13775984D01*
X14075705Y-13652174D02*
X14085229Y-13661698D01*
X14085229Y-13661698D02*
X14075705Y-13671222D01*
X14075705Y-13671222D02*
X14066182Y-13661698D01*
X14066182Y-13661698D02*
X14075705Y-13652174D01*
X14075705Y-13652174D02*
X14075705Y-13671222D01*
M02*
